<?xml version="1.0" encoding="UTF-8" standalone="no"?>
<!DOCTYPE svg PUBLIC "-//W3C//DTD SVG 1.1//EN"
 "http://www.w3.org/Graphics/SVG/1.1/DTD/svg11.dtd">
<!-- Generated by graphviz version 7.1.0 (0)
 -->
<!-- Pages: 1 -->
<svg width="334pt" height="581pt"
 viewBox="0.00 0.00 334.00 581.00" xmlns="http://www.w3.org/2000/svg" xmlns:xlink="http://www.w3.org/1999/xlink">
<g id="graph0" class="graph" transform="scale(1 1) rotate(0) translate(4 577)">
<polygon fill="white" stroke="none" points="-4,4 -4,-577 330,-577 330,4 -4,4"/>
<g id="clust1" class="cluster">
<title>cluster_1</title>
<polygon fill="none" stroke="black" points="8,-8 8,-565 318,-565 318,-8 8,-8"/>
<text text-anchor="middle" x="163" y="-553" font-family="Times,serif" font-size="10.00">fizzbuzz.pdf</text>
</g>
<!-- SPEC_API -->
<g id="node1" class="node">
<title>SPEC_API</title>
<g id="a_node1"><a xlink:href="fizzbuzz.pdf#SPEC_API" xlink:title="SPEC_API">
<polygon fill="cyan" stroke="none" points="77.5,-508 23.5,-508 23.5,-496 77.5,-496 77.5,-508"/>
<text text-anchor="middle" x="50.5" y="-500.1" font-family="Times,serif" font-size="8.00">SPEC_API</text>
</a>
</g>
</g>
<!-- TEST_API -->
<g id="node7" class="node">
<title>TEST_API</title>
<g id="a_node7"><a xlink:href="fizzbuzz.pdf#TEST_API" xlink:title="TEST_API">
<polygon fill="lightgrey" stroke="none" points="182,-508 128,-508 128,-496 182,-496 182,-508"/>
<text text-anchor="middle" x="155" y="-500.1" font-family="Times,serif" font-size="8.00">TEST_API</text>
</a>
</g>
</g>
<!-- SPEC_API&#45;&gt;TEST_API -->
<g id="edge1" class="edge">
<title>SPEC_API&#45;&gt;TEST_API</title>
<path fill="none" stroke="black" d="M77.37,-502C89.26,-502 103.6,-502 116.64,-502"/>
<polygon fill="black" stroke="black" points="116.63,-505.5 126.63,-502 116.63,-498.5 116.63,-505.5"/>
</g>
<!-- SPEC_OUT -->
<g id="node2" class="node">
<title>SPEC_OUT</title>
<g id="a_node2"><a xlink:href="fizzbuzz.pdf#SPEC_OUT" xlink:title="SPEC_OUT">
<polygon fill="cyan" stroke="none" points="77.5,-418 23.5,-418 23.5,-406 77.5,-406 77.5,-418"/>
<text text-anchor="middle" x="50.5" y="-410.1" font-family="Times,serif" font-size="8.00">SPEC_OUT</text>
</a>
</g>
</g>
<!-- TEST_OUT -->
<g id="node8" class="node">
<title>TEST_OUT</title>
<g id="a_node8"><a xlink:href="fizzbuzz.pdf#TEST_OUT" xlink:title="TEST_OUT">
<polygon fill="lightgrey" stroke="none" points="182,-418 128,-418 128,-406 182,-406 182,-418"/>
<text text-anchor="middle" x="155" y="-410.1" font-family="Times,serif" font-size="8.00">TEST_OUT</text>
</a>
</g>
</g>
<!-- SPEC_OUT&#45;&gt;TEST_OUT -->
<g id="edge2" class="edge">
<title>SPEC_OUT&#45;&gt;TEST_OUT</title>
<path fill="none" stroke="black" d="M77.37,-412C89.26,-412 103.6,-412 116.64,-412"/>
<polygon fill="black" stroke="black" points="116.63,-415.5 126.63,-412 116.63,-408.5 116.63,-415.5"/>
</g>
<!-- SPEC_FIZZ -->
<g id="node3" class="node">
<title>SPEC_FIZZ</title>
<g id="a_node3"><a xlink:href="fizzbuzz.pdf#SPEC_FIZZ" xlink:title="SPEC_FIZZ">
<polygon fill="cyan" stroke="none" points="77.5,-328 23.5,-328 23.5,-316 77.5,-316 77.5,-328"/>
<text text-anchor="middle" x="50.5" y="-320.1" font-family="Times,serif" font-size="8.00">SPEC_FIZZ</text>
</a>
</g>
</g>
<!-- TEST_FIZZ -->
<g id="node9" class="node">
<title>TEST_FIZZ</title>
<g id="a_node9"><a xlink:href="fizzbuzz.pdf#TEST_FIZZ" xlink:title="TEST_FIZZ">
<polygon fill="lightgrey" stroke="none" points="182,-328 128,-328 128,-316 182,-316 182,-328"/>
<text text-anchor="middle" x="155" y="-320.1" font-family="Times,serif" font-size="8.00">TEST_FIZZ</text>
</a>
</g>
</g>
<!-- SPEC_FIZZ&#45;&gt;TEST_FIZZ -->
<g id="edge3" class="edge">
<title>SPEC_FIZZ&#45;&gt;TEST_FIZZ</title>
<path fill="none" stroke="black" d="M77.37,-322C89.26,-322 103.6,-322 116.64,-322"/>
<polygon fill="black" stroke="black" points="116.63,-325.5 126.63,-322 116.63,-318.5 116.63,-325.5"/>
</g>
<!-- SPEC_BUZZ -->
<g id="node4" class="node">
<title>SPEC_BUZZ</title>
<g id="a_node4"><a xlink:href="fizzbuzz.pdf#SPEC_BUZZ" xlink:title="SPEC_BUZZ">
<polygon fill="cyan" stroke="none" points="77.5,-238 23.5,-238 23.5,-226 77.5,-226 77.5,-238"/>
<text text-anchor="middle" x="50.5" y="-230.1" font-family="Times,serif" font-size="8.00">SPEC_BUZZ</text>
</a>
</g>
</g>
<!-- TEST_BUZZ -->
<g id="node10" class="node">
<title>TEST_BUZZ</title>
<g id="a_node10"><a xlink:href="fizzbuzz.pdf#TEST_BUZZ" xlink:title="TEST_BUZZ">
<polygon fill="lightgrey" stroke="none" points="182,-238 128,-238 128,-226 182,-226 182,-238"/>
<text text-anchor="middle" x="155" y="-230.1" font-family="Times,serif" font-size="8.00">TEST_BUZZ</text>
</a>
</g>
</g>
<!-- SPEC_BUZZ&#45;&gt;TEST_BUZZ -->
<g id="edge4" class="edge">
<title>SPEC_BUZZ&#45;&gt;TEST_BUZZ</title>
<path fill="none" stroke="black" d="M77.37,-232C89.26,-232 103.6,-232 116.64,-232"/>
<polygon fill="black" stroke="black" points="116.63,-235.5 126.63,-232 116.63,-228.5 116.63,-235.5"/>
</g>
<!-- SPEC_FIZZBUZZ -->
<g id="node5" class="node">
<title>SPEC_FIZZBUZZ</title>
<g id="a_node5"><a xlink:href="fizzbuzz.pdf#SPEC_FIZZBUZZ" xlink:title="SPEC_FIZZBUZZ">
<polygon fill="cyan" stroke="none" points="85,-148 16,-148 16,-136 85,-136 85,-148"/>
<text text-anchor="middle" x="50.5" y="-140.1" font-family="Times,serif" font-size="8.00">SPEC_FIZZBUZZ</text>
</a>
</g>
</g>
<!-- TEST_FIZZBUZZ -->
<g id="node11" class="node">
<title>TEST_FIZZBUZZ</title>
<g id="a_node11"><a xlink:href="fizzbuzz.pdf#TEST_FIZZBUZZ" xlink:title="TEST_FIZZBUZZ">
<polygon fill="lightgrey" stroke="none" points="189,-148 121,-148 121,-136 189,-136 189,-148"/>
<text text-anchor="middle" x="155" y="-140.1" font-family="Times,serif" font-size="8.00">TEST_FIZZBUZZ</text>
</a>
</g>
</g>
<!-- SPEC_FIZZBUZZ&#45;&gt;TEST_FIZZBUZZ -->
<g id="edge5" class="edge">
<title>SPEC_FIZZBUZZ&#45;&gt;TEST_FIZZBUZZ</title>
<path fill="none" stroke="black" d="M84.78,-142C92.82,-142 101.53,-142 109.98,-142"/>
<polygon fill="black" stroke="black" points="109.72,-145.5 119.72,-142 109.72,-138.5 109.72,-145.5"/>
</g>
<!-- SPEC_NUM -->
<g id="node6" class="node">
<title>SPEC_NUM</title>
<g id="a_node6"><a xlink:href="fizzbuzz.pdf#SPEC_NUM" xlink:title="SPEC_NUM">
<polygon fill="cyan" stroke="none" points="77.5,-58 23.5,-58 23.5,-46 77.5,-46 77.5,-58"/>
<text text-anchor="middle" x="50.5" y="-50.1" font-family="Times,serif" font-size="8.00">SPEC_NUM</text>
</a>
</g>
</g>
<!-- TEST_NUM -->
<g id="node12" class="node">
<title>TEST_NUM</title>
<g id="a_node12"><a xlink:href="fizzbuzz.pdf#TEST_NUM" xlink:title="TEST_NUM">
<polygon fill="lightgrey" stroke="none" points="182,-58 128,-58 128,-46 182,-46 182,-58"/>
<text text-anchor="middle" x="155" y="-50.1" font-family="Times,serif" font-size="8.00">TEST_NUM</text>
</a>
</g>
</g>
<!-- SPEC_NUM&#45;&gt;TEST_NUM -->
<g id="edge6" class="edge">
<title>SPEC_NUM&#45;&gt;TEST_NUM</title>
<path fill="none" stroke="black" d="M77.37,-52C89.26,-52 103.6,-52 116.64,-52"/>
<polygon fill="black" stroke="black" points="116.63,-55.5 126.63,-52 116.63,-48.5 116.63,-55.5"/>
</g>
<!-- RES_LUA_API -->
<g id="node13" class="node">
<title>RES_LUA_API</title>
<g id="a_node13"><a xlink:href="fizzbuzz.pdf#RES_LUA_API" xlink:title="RES_LUA_API">
<polygon fill="green" stroke="none" points="296.5,-478 238.5,-478 238.5,-466 296.5,-466 296.5,-478"/>
<text text-anchor="middle" x="267.5" y="-470.1" font-family="Times,serif" font-size="8.00">RES_LUA_API</text>
</a>
</g>
</g>
<!-- TEST_API&#45;&gt;RES_LUA_API -->
<g id="edge7" class="edge">
<title>TEST_API&#45;&gt;RES_LUA_API</title>
<path fill="none" stroke="black" d="M178.1,-496C193.98,-491.69 215.67,-485.8 233.59,-480.94"/>
<polygon fill="black" stroke="black" points="234.25,-484.38 242.98,-478.39 232.41,-477.63 234.25,-484.38"/>
</g>
<!-- RES_C_API -->
<g id="node19" class="node">
<title>RES_C_API</title>
<g id="a_node19"><a xlink:href="fizzbuzz.pdf#RES_C_API" xlink:title="RES_C_API">
<polygon fill="green" stroke="none" points="294.5,-508 240.5,-508 240.5,-496 294.5,-496 294.5,-508"/>
<text text-anchor="middle" x="267.5" y="-500.1" font-family="Times,serif" font-size="8.00">RES_C_API</text>
</a>
</g>
</g>
<!-- TEST_API&#45;&gt;RES_C_API -->
<g id="edge13" class="edge">
<title>TEST_API&#45;&gt;RES_C_API</title>
<path fill="none" stroke="black" d="M181.91,-502C196.04,-502 213.78,-502 229.36,-502"/>
<polygon fill="black" stroke="black" points="229.24,-505.5 239.24,-502 229.24,-498.5 229.24,-505.5"/>
</g>
<!-- RES_HS_API -->
<g id="node25" class="node">
<title>RES_HS_API</title>
<g id="a_node25"><a xlink:href="fizzbuzz.pdf#RES_HS_API" xlink:title="RES_HS_API">
<polygon fill="green" stroke="none" points="294.5,-538 240.5,-538 240.5,-526 294.5,-526 294.5,-538"/>
<text text-anchor="middle" x="267.5" y="-530.1" font-family="Times,serif" font-size="8.00">RES_HS_API</text>
</a>
</g>
</g>
<!-- TEST_API&#45;&gt;RES_HS_API -->
<g id="edge19" class="edge">
<title>TEST_API&#45;&gt;RES_HS_API</title>
<path fill="none" stroke="black" d="M178.1,-508C193.98,-512.31 215.67,-518.2 233.59,-523.06"/>
<polygon fill="black" stroke="black" points="232.41,-526.37 242.98,-525.61 234.25,-519.62 232.41,-526.37"/>
</g>
<!-- RES_LUA_OUT -->
<g id="node14" class="node">
<title>RES_LUA_OUT</title>
<g id="a_node14"><a xlink:href="fizzbuzz.pdf#RES_LUA_OUT" xlink:title="RES_LUA_OUT">
<polygon fill="green" stroke="none" points="298.5,-388 236.5,-388 236.5,-376 298.5,-376 298.5,-388"/>
<text text-anchor="middle" x="267.5" y="-380.1" font-family="Times,serif" font-size="8.00">RES_LUA_OUT</text>
</a>
</g>
</g>
<!-- TEST_OUT&#45;&gt;RES_LUA_OUT -->
<g id="edge8" class="edge">
<title>TEST_OUT&#45;&gt;RES_LUA_OUT</title>
<path fill="none" stroke="black" d="M178.1,-406C193.98,-401.69 215.67,-395.8 233.59,-390.94"/>
<polygon fill="black" stroke="black" points="234.25,-394.38 242.98,-388.39 232.41,-387.63 234.25,-394.38"/>
</g>
<!-- RES_C_OUT -->
<g id="node20" class="node">
<title>RES_C_OUT</title>
<g id="a_node20"><a xlink:href="fizzbuzz.pdf#RES_C_OUT" xlink:title="RES_C_OUT">
<polygon fill="green" stroke="none" points="294.5,-418 240.5,-418 240.5,-406 294.5,-406 294.5,-418"/>
<text text-anchor="middle" x="267.5" y="-410.1" font-family="Times,serif" font-size="8.00">RES_C_OUT</text>
</a>
</g>
</g>
<!-- TEST_OUT&#45;&gt;RES_C_OUT -->
<g id="edge14" class="edge">
<title>TEST_OUT&#45;&gt;RES_C_OUT</title>
<path fill="none" stroke="black" d="M181.91,-412C196.04,-412 213.78,-412 229.36,-412"/>
<polygon fill="black" stroke="black" points="229.24,-415.5 239.24,-412 229.24,-408.5 229.24,-415.5"/>
</g>
<!-- RES_HS_OUT -->
<g id="node26" class="node">
<title>RES_HS_OUT</title>
<g id="a_node26"><a xlink:href="fizzbuzz.pdf#RES_HS_OUT" xlink:title="RES_HS_OUT">
<polygon fill="green" stroke="none" points="295.5,-448 239.5,-448 239.5,-436 295.5,-436 295.5,-448"/>
<text text-anchor="middle" x="267.5" y="-440.1" font-family="Times,serif" font-size="8.00">RES_HS_OUT</text>
</a>
</g>
</g>
<!-- TEST_OUT&#45;&gt;RES_HS_OUT -->
<g id="edge20" class="edge">
<title>TEST_OUT&#45;&gt;RES_HS_OUT</title>
<path fill="none" stroke="black" d="M178.1,-418C193.98,-422.31 215.67,-428.2 233.59,-433.06"/>
<polygon fill="black" stroke="black" points="232.41,-436.37 242.98,-435.61 234.25,-429.62 232.41,-436.37"/>
</g>
<!-- RES_LUA_FIZZ -->
<g id="node15" class="node">
<title>RES_LUA_FIZZ</title>
<g id="a_node15"><a xlink:href="fizzbuzz.pdf#RES_LUA_FIZZ" xlink:title="RES_LUA_FIZZ">
<polygon fill="green" stroke="none" points="298.5,-298 236.5,-298 236.5,-286 298.5,-286 298.5,-298"/>
<text text-anchor="middle" x="267.5" y="-290.1" font-family="Times,serif" font-size="8.00">RES_LUA_FIZZ</text>
</a>
</g>
</g>
<!-- TEST_FIZZ&#45;&gt;RES_LUA_FIZZ -->
<g id="edge9" class="edge">
<title>TEST_FIZZ&#45;&gt;RES_LUA_FIZZ</title>
<path fill="none" stroke="black" d="M178.1,-316C193.98,-311.69 215.67,-305.8 233.59,-300.94"/>
<polygon fill="black" stroke="black" points="234.25,-304.38 242.98,-298.39 232.41,-297.63 234.25,-304.38"/>
</g>
<!-- RES_C_FIZZ -->
<g id="node21" class="node">
<title>RES_C_FIZZ</title>
<g id="a_node21"><a xlink:href="fizzbuzz.pdf#RES_C_FIZZ" xlink:title="RES_C_FIZZ">
<polygon fill="green" stroke="none" points="294.5,-328 240.5,-328 240.5,-316 294.5,-316 294.5,-328"/>
<text text-anchor="middle" x="267.5" y="-320.1" font-family="Times,serif" font-size="8.00">RES_C_FIZZ</text>
</a>
</g>
</g>
<!-- TEST_FIZZ&#45;&gt;RES_C_FIZZ -->
<g id="edge15" class="edge">
<title>TEST_FIZZ&#45;&gt;RES_C_FIZZ</title>
<path fill="none" stroke="black" d="M181.91,-322C196.04,-322 213.78,-322 229.36,-322"/>
<polygon fill="black" stroke="black" points="229.24,-325.5 239.24,-322 229.24,-318.5 229.24,-325.5"/>
</g>
<!-- RES_HS_FIZZ -->
<g id="node27" class="node">
<title>RES_HS_FIZZ</title>
<g id="a_node27"><a xlink:href="fizzbuzz.pdf#RES_HS_FIZZ" xlink:title="RES_HS_FIZZ">
<polygon fill="red" stroke="none" points="295.5,-358 239.5,-358 239.5,-346 295.5,-346 295.5,-358"/>
<text text-anchor="middle" x="267.5" y="-350.1" font-family="Times,serif" font-size="8.00">RES_HS_FIZZ</text>
</a>
</g>
</g>
<!-- TEST_FIZZ&#45;&gt;RES_HS_FIZZ -->
<g id="edge21" class="edge">
<title>TEST_FIZZ&#45;&gt;RES_HS_FIZZ</title>
<path fill="none" stroke="black" d="M178.1,-328C193.98,-332.31 215.67,-338.2 233.59,-343.06"/>
<polygon fill="black" stroke="black" points="232.41,-346.37 242.98,-345.61 234.25,-339.62 232.41,-346.37"/>
</g>
<!-- RES_LUA_BUZZ -->
<g id="node16" class="node">
<title>RES_LUA_BUZZ</title>
<g id="a_node16"><a xlink:href="fizzbuzz.pdf#RES_LUA_BUZZ" xlink:title="RES_LUA_BUZZ">
<polygon fill="green" stroke="none" points="301,-208 234,-208 234,-196 301,-196 301,-208"/>
<text text-anchor="middle" x="267.5" y="-200.1" font-family="Times,serif" font-size="8.00">RES_LUA_BUZZ</text>
</a>
</g>
</g>
<!-- TEST_BUZZ&#45;&gt;RES_LUA_BUZZ -->
<g id="edge10" class="edge">
<title>TEST_BUZZ&#45;&gt;RES_LUA_BUZZ</title>
<path fill="none" stroke="black" d="M178.1,-226C193.98,-221.69 215.67,-215.8 233.59,-210.94"/>
<polygon fill="black" stroke="black" points="234.25,-214.38 242.98,-208.39 232.41,-207.63 234.25,-214.38"/>
</g>
<!-- RES_C_BUZZ -->
<g id="node22" class="node">
<title>RES_C_BUZZ</title>
<g id="a_node22"><a xlink:href="fizzbuzz.pdf#RES_C_BUZZ" xlink:title="RES_C_BUZZ">
<polygon fill="green" stroke="none" points="295,-238 240,-238 240,-226 295,-226 295,-238"/>
<text text-anchor="middle" x="267.5" y="-230.1" font-family="Times,serif" font-size="8.00">RES_C_BUZZ</text>
</a>
</g>
</g>
<!-- TEST_BUZZ&#45;&gt;RES_C_BUZZ -->
<g id="edge16" class="edge">
<title>TEST_BUZZ&#45;&gt;RES_C_BUZZ</title>
<path fill="none" stroke="black" d="M181.91,-232C195.94,-232 213.52,-232 229.02,-232"/>
<polygon fill="black" stroke="black" points="228.86,-235.5 238.86,-232 228.86,-228.5 228.86,-235.5"/>
</g>
<!-- RES_HS_BUZZ -->
<g id="node28" class="node">
<title>RES_HS_BUZZ</title>
<g id="a_node28"><a xlink:href="fizzbuzz.pdf#RES_HS_BUZZ" xlink:title="RES_HS_BUZZ">
<polygon fill="red" stroke="none" points="298,-268 237,-268 237,-256 298,-256 298,-268"/>
<text text-anchor="middle" x="267.5" y="-260.1" font-family="Times,serif" font-size="8.00">RES_HS_BUZZ</text>
</a>
</g>
</g>
<!-- TEST_BUZZ&#45;&gt;RES_HS_BUZZ -->
<g id="edge22" class="edge">
<title>TEST_BUZZ&#45;&gt;RES_HS_BUZZ</title>
<path fill="none" stroke="black" d="M178.1,-238C193.98,-242.31 215.67,-248.2 233.59,-253.06"/>
<polygon fill="black" stroke="black" points="232.41,-256.37 242.98,-255.61 234.25,-249.62 232.41,-256.37"/>
</g>
<!-- RES_LUA_FIZZBUZZ -->
<g id="node17" class="node">
<title>RES_LUA_FIZZBUZZ</title>
<g id="a_node17"><a xlink:href="fizzbuzz.pdf#RES_LUA_FIZZBUZZ" xlink:title="RES_LUA_FIZZBUZZ">
<polygon fill="green" stroke="none" points="310,-118 225,-118 225,-106 310,-106 310,-118"/>
<text text-anchor="middle" x="267.5" y="-110.1" font-family="Times,serif" font-size="8.00">RES_LUA_FIZZBUZZ</text>
</a>
</g>
</g>
<!-- TEST_FIZZBUZZ&#45;&gt;RES_LUA_FIZZBUZZ -->
<g id="edge11" class="edge">
<title>TEST_FIZZBUZZ&#45;&gt;RES_LUA_FIZZBUZZ</title>
<path fill="none" stroke="black" d="M178.1,-136C193.98,-131.69 215.67,-125.8 233.59,-120.94"/>
<polygon fill="black" stroke="black" points="234.25,-124.38 242.98,-118.39 232.41,-117.63 234.25,-124.38"/>
</g>
<!-- RES_C_FIZZBUZZ -->
<g id="node23" class="node">
<title>RES_C_FIZZBUZZ</title>
<g id="a_node23"><a xlink:href="fizzbuzz.pdf#RES_C_FIZZBUZZ" xlink:title="RES_C_FIZZBUZZ">
<polygon fill="green" stroke="none" points="304,-148 231,-148 231,-136 304,-136 304,-148"/>
<text text-anchor="middle" x="267.5" y="-140.1" font-family="Times,serif" font-size="8.00">RES_C_FIZZBUZZ</text>
</a>
</g>
</g>
<!-- TEST_FIZZBUZZ&#45;&gt;RES_C_FIZZBUZZ -->
<g id="edge17" class="edge">
<title>TEST_FIZZBUZZ&#45;&gt;RES_C_FIZZBUZZ</title>
<path fill="none" stroke="black" d="M188.85,-142C198.56,-142 209.38,-142 219.78,-142"/>
<polygon fill="black" stroke="black" points="219.76,-145.5 229.76,-142 219.76,-138.5 219.76,-145.5"/>
</g>
<!-- RES_HS_FIZZBUZZ -->
<g id="node29" class="node">
<title>RES_HS_FIZZBUZZ</title>
<g id="a_node29"><a xlink:href="fizzbuzz.pdf#RES_HS_FIZZBUZZ" xlink:title="RES_HS_FIZZBUZZ">
<polygon fill="red" stroke="none" points="307,-178 228,-178 228,-166 307,-166 307,-178"/>
<text text-anchor="middle" x="267.5" y="-170.1" font-family="Times,serif" font-size="8.00">RES_HS_FIZZBUZZ</text>
</a>
</g>
</g>
<!-- TEST_FIZZBUZZ&#45;&gt;RES_HS_FIZZBUZZ -->
<g id="edge23" class="edge">
<title>TEST_FIZZBUZZ&#45;&gt;RES_HS_FIZZBUZZ</title>
<path fill="none" stroke="black" d="M178.1,-148C193.98,-152.31 215.67,-158.2 233.59,-163.06"/>
<polygon fill="black" stroke="black" points="232.41,-166.37 242.98,-165.61 234.25,-159.62 232.41,-166.37"/>
</g>
<!-- RES_LUA_NUM -->
<g id="node18" class="node">
<title>RES_LUA_NUM</title>
<g id="a_node18"><a xlink:href="fizzbuzz.pdf#RES_LUA_NUM" xlink:title="RES_LUA_NUM">
<polygon fill="green" stroke="none" points="300,-28 235,-28 235,-16 300,-16 300,-28"/>
<text text-anchor="middle" x="267.5" y="-20.1" font-family="Times,serif" font-size="8.00">RES_LUA_NUM</text>
</a>
</g>
</g>
<!-- TEST_NUM&#45;&gt;RES_LUA_NUM -->
<g id="edge12" class="edge">
<title>TEST_NUM&#45;&gt;RES_LUA_NUM</title>
<path fill="none" stroke="black" d="M178.1,-46C193.98,-41.69 215.67,-35.8 233.59,-30.94"/>
<polygon fill="black" stroke="black" points="234.25,-34.38 242.98,-28.39 232.41,-27.63 234.25,-34.38"/>
</g>
<!-- RES_C_NUM -->
<g id="node24" class="node">
<title>RES_C_NUM</title>
<g id="a_node24"><a xlink:href="fizzbuzz.pdf#RES_C_NUM" xlink:title="RES_C_NUM">
<polygon fill="green" stroke="none" points="294.5,-58 240.5,-58 240.5,-46 294.5,-46 294.5,-58"/>
<text text-anchor="middle" x="267.5" y="-50.1" font-family="Times,serif" font-size="8.00">RES_C_NUM</text>
</a>
</g>
</g>
<!-- TEST_NUM&#45;&gt;RES_C_NUM -->
<g id="edge18" class="edge">
<title>TEST_NUM&#45;&gt;RES_C_NUM</title>
<path fill="none" stroke="black" d="M181.91,-52C196.04,-52 213.78,-52 229.36,-52"/>
<polygon fill="black" stroke="black" points="229.24,-55.5 239.24,-52 229.24,-48.5 229.24,-55.5"/>
</g>
<!-- RES_HS_NUM -->
<g id="node30" class="node">
<title>RES_HS_NUM</title>
<g id="a_node30"><a xlink:href="fizzbuzz.pdf#RES_HS_NUM" xlink:title="RES_HS_NUM">
<polygon fill="red" stroke="none" points="297,-88 238,-88 238,-76 297,-76 297,-88"/>
<text text-anchor="middle" x="267.5" y="-80.1" font-family="Times,serif" font-size="8.00">RES_HS_NUM</text>
</a>
</g>
</g>
<!-- TEST_NUM&#45;&gt;RES_HS_NUM -->
<g id="edge24" class="edge">
<title>TEST_NUM&#45;&gt;RES_HS_NUM</title>
<path fill="none" stroke="black" d="M178.1,-58C193.98,-62.31 215.67,-68.2 233.59,-73.06"/>
<polygon fill="black" stroke="black" points="232.41,-76.37 242.98,-75.61 234.25,-69.62 232.41,-76.37"/>
</g>
</g>
</svg>
