<?xml version="1.0" encoding="UTF-8" standalone="no"?>
<!DOCTYPE svg PUBLIC "-//W3C//DTD SVG 1.1//EN"
 "http://www.w3.org/Graphics/SVG/1.1/DTD/svg11.dtd">
<!-- Generated by graphviz version 12.1.0 (20240811.2233)
 -->
<!-- Pages: 1 -->
<svg width="333pt" height="583pt"
 viewBox="0.00 0.00 332.50 583.00" xmlns="http://www.w3.org/2000/svg" xmlns:xlink="http://www.w3.org/1999/xlink">
<g id="graph0" class="graph" transform="scale(1 1) rotate(0) translate(4 579)">
<polygon fill="white" stroke="none" points="-4,4 -4,-579 328.5,-579 328.5,4 -4,4"/>
<g id="clust1" class="cluster">
<title>cluster_1</title>
<polygon fill="none" stroke="black" points="8,-8 8,-567 316.5,-567 316.5,-8 8,-8"/>
<text text-anchor="middle" x="162.25" y="-553.5" font-family="Times,serif" font-size="10.00">fizzbuzz.pdf</text>
</g>
<!-- SPEC_API -->
<g id="node1" class="node">
<title>SPEC_API</title>
<g id="a_node1"><a xlink:href="fizzbuzz.pdf#SPEC_API" xlink:title="SPEC_API">
<polygon fill="cyan" stroke="none" points="77.12,-57.76 23.12,-57.76 23.12,-46.24 77.12,-46.24 77.12,-57.76"/>
<text text-anchor="middle" x="50.12" y="-49.27" font-family="Times,serif" font-size="8.00">SPEC_API</text>
</a>
</g>
</g>
<!-- TEST_API -->
<g id="node7" class="node">
<title>TEST_API</title>
<g id="a_node7"><a xlink:href="fizzbuzz.pdf#TEST_API" xlink:title="TEST_API">
<polygon fill="lightgrey" stroke="none" points="181,-57.76 127,-57.76 127,-46.24 181,-46.24 181,-57.76"/>
<text text-anchor="middle" x="154" y="-49.27" font-family="Times,serif" font-size="8.00">TEST_API</text>
</a>
</g>
</g>
<!-- SPEC_API&#45;&gt;TEST_API -->
<g id="edge1" class="edge">
<title>SPEC_API&#45;&gt;TEST_API</title>
<path fill="none" stroke="black" d="M77.1,-52C88.83,-52 102.91,-52 115.75,-52"/>
<polygon fill="black" stroke="black" points="115.56,-55.5 125.56,-52 115.56,-48.5 115.56,-55.5"/>
</g>
<!-- SPEC_OUT -->
<g id="node2" class="node">
<title>SPEC_OUT</title>
<g id="a_node2"><a xlink:href="fizzbuzz.pdf#SPEC_OUT" xlink:title="SPEC_OUT">
<polygon fill="cyan" stroke="none" points="77.12,-147.76 23.12,-147.76 23.12,-136.24 77.12,-136.24 77.12,-147.76"/>
<text text-anchor="middle" x="50.12" y="-139.28" font-family="Times,serif" font-size="8.00">SPEC_OUT</text>
</a>
</g>
</g>
<!-- TEST_OUT -->
<g id="node8" class="node">
<title>TEST_OUT</title>
<g id="a_node8"><a xlink:href="fizzbuzz.pdf#TEST_OUT" xlink:title="TEST_OUT">
<polygon fill="lightgrey" stroke="none" points="181,-147.76 127,-147.76 127,-136.24 181,-136.24 181,-147.76"/>
<text text-anchor="middle" x="154" y="-139.28" font-family="Times,serif" font-size="8.00">TEST_OUT</text>
</a>
</g>
</g>
<!-- SPEC_OUT&#45;&gt;TEST_OUT -->
<g id="edge2" class="edge">
<title>SPEC_OUT&#45;&gt;TEST_OUT</title>
<path fill="none" stroke="black" d="M77.1,-142C88.83,-142 102.91,-142 115.75,-142"/>
<polygon fill="black" stroke="black" points="115.56,-145.5 125.56,-142 115.56,-138.5 115.56,-145.5"/>
</g>
<!-- SPEC_FIZZ -->
<g id="node3" class="node">
<title>SPEC_FIZZ</title>
<g id="a_node3"><a xlink:href="fizzbuzz.pdf#SPEC_FIZZ" xlink:title="SPEC_FIZZ">
<polygon fill="cyan" stroke="none" points="77.12,-237.76 23.12,-237.76 23.12,-226.24 77.12,-226.24 77.12,-237.76"/>
<text text-anchor="middle" x="50.12" y="-229.28" font-family="Times,serif" font-size="8.00">SPEC_FIZZ</text>
</a>
</g>
</g>
<!-- TEST_FIZZ -->
<g id="node9" class="node">
<title>TEST_FIZZ</title>
<g id="a_node9"><a xlink:href="fizzbuzz.pdf#TEST_FIZZ" xlink:title="TEST_FIZZ">
<polygon fill="lightgrey" stroke="none" points="181,-237.76 127,-237.76 127,-226.24 181,-226.24 181,-237.76"/>
<text text-anchor="middle" x="154" y="-229.28" font-family="Times,serif" font-size="8.00">TEST_FIZZ</text>
</a>
</g>
</g>
<!-- SPEC_FIZZ&#45;&gt;TEST_FIZZ -->
<g id="edge3" class="edge">
<title>SPEC_FIZZ&#45;&gt;TEST_FIZZ</title>
<path fill="none" stroke="black" d="M77.1,-232C88.83,-232 102.91,-232 115.75,-232"/>
<polygon fill="black" stroke="black" points="115.56,-235.5 125.56,-232 115.56,-228.5 115.56,-235.5"/>
</g>
<!-- SPEC_BUZZ -->
<g id="node4" class="node">
<title>SPEC_BUZZ</title>
<g id="a_node4"><a xlink:href="fizzbuzz.pdf#SPEC_BUZZ" xlink:title="SPEC_BUZZ">
<polygon fill="cyan" stroke="none" points="77.12,-327.76 23.12,-327.76 23.12,-316.24 77.12,-316.24 77.12,-327.76"/>
<text text-anchor="middle" x="50.12" y="-319.27" font-family="Times,serif" font-size="8.00">SPEC_BUZZ</text>
</a>
</g>
</g>
<!-- TEST_BUZZ -->
<g id="node10" class="node">
<title>TEST_BUZZ</title>
<g id="a_node10"><a xlink:href="fizzbuzz.pdf#TEST_BUZZ" xlink:title="TEST_BUZZ">
<polygon fill="lightgrey" stroke="none" points="181,-327.76 127,-327.76 127,-316.24 181,-316.24 181,-327.76"/>
<text text-anchor="middle" x="154" y="-319.27" font-family="Times,serif" font-size="8.00">TEST_BUZZ</text>
</a>
</g>
</g>
<!-- SPEC_BUZZ&#45;&gt;TEST_BUZZ -->
<g id="edge4" class="edge">
<title>SPEC_BUZZ&#45;&gt;TEST_BUZZ</title>
<path fill="none" stroke="black" d="M77.1,-322C88.83,-322 102.91,-322 115.75,-322"/>
<polygon fill="black" stroke="black" points="115.56,-325.5 125.56,-322 115.56,-318.5 115.56,-325.5"/>
</g>
<!-- SPEC_FIZZBUZZ -->
<g id="node5" class="node">
<title>SPEC_FIZZBUZZ</title>
<g id="a_node5"><a xlink:href="fizzbuzz.pdf#SPEC_FIZZBUZZ" xlink:title="SPEC_FIZZBUZZ">
<polygon fill="cyan" stroke="none" points="84.25,-417.76 16,-417.76 16,-406.24 84.25,-406.24 84.25,-417.76"/>
<text text-anchor="middle" x="50.12" y="-409.27" font-family="Times,serif" font-size="8.00">SPEC_FIZZBUZZ</text>
</a>
</g>
</g>
<!-- TEST_FIZZBUZZ -->
<g id="node11" class="node">
<title>TEST_FIZZBUZZ</title>
<g id="a_node11"><a xlink:href="fizzbuzz.pdf#TEST_FIZZBUZZ" xlink:title="TEST_FIZZBUZZ">
<polygon fill="lightgrey" stroke="none" points="187.75,-417.76 120.25,-417.76 120.25,-406.24 187.75,-406.24 187.75,-417.76"/>
<text text-anchor="middle" x="154" y="-409.27" font-family="Times,serif" font-size="8.00">TEST_FIZZBUZZ</text>
</a>
</g>
</g>
<!-- SPEC_FIZZBUZZ&#45;&gt;TEST_FIZZBUZZ -->
<g id="edge5" class="edge">
<title>SPEC_FIZZBUZZ&#45;&gt;TEST_FIZZBUZZ</title>
<path fill="none" stroke="black" d="M84.2,-412C92.1,-412 100.65,-412 108.96,-412"/>
<polygon fill="black" stroke="black" points="108.92,-415.5 118.92,-412 108.92,-408.5 108.92,-415.5"/>
</g>
<!-- SPEC_NUM -->
<g id="node6" class="node">
<title>SPEC_NUM</title>
<g id="a_node6"><a xlink:href="fizzbuzz.pdf#SPEC_NUM" xlink:title="SPEC_NUM">
<polygon fill="cyan" stroke="none" points="77.12,-507.76 23.12,-507.76 23.12,-496.24 77.12,-496.24 77.12,-507.76"/>
<text text-anchor="middle" x="50.12" y="-499.27" font-family="Times,serif" font-size="8.00">SPEC_NUM</text>
</a>
</g>
</g>
<!-- TEST_NUM -->
<g id="node12" class="node">
<title>TEST_NUM</title>
<g id="a_node12"><a xlink:href="fizzbuzz.pdf#TEST_NUM" xlink:title="TEST_NUM">
<polygon fill="lightgrey" stroke="none" points="181,-507.76 127,-507.76 127,-496.24 181,-496.24 181,-507.76"/>
<text text-anchor="middle" x="154" y="-499.27" font-family="Times,serif" font-size="8.00">TEST_NUM</text>
</a>
</g>
</g>
<!-- SPEC_NUM&#45;&gt;TEST_NUM -->
<g id="edge6" class="edge">
<title>SPEC_NUM&#45;&gt;TEST_NUM</title>
<path fill="none" stroke="black" d="M77.1,-502C88.83,-502 102.91,-502 115.75,-502"/>
<polygon fill="black" stroke="black" points="115.56,-505.5 125.56,-502 115.56,-498.5 115.56,-505.5"/>
</g>
<!-- RES_LUA_API -->
<g id="node13" class="node">
<title>RES_LUA_API</title>
<g id="a_node13"><a xlink:href="fizzbuzz.pdf#RES_LUA_API" xlink:title="RES_LUA_API">
<polygon fill="green" stroke="none" points="294.62,-27.76 237.62,-27.76 237.62,-16.24 294.62,-16.24 294.62,-27.76"/>
<text text-anchor="middle" x="266.12" y="-19.27" font-family="Times,serif" font-size="8.00">RES_LUA_API</text>
</a>
</g>
</g>
<!-- TEST_API&#45;&gt;RES_LUA_API -->
<g id="edge7" class="edge">
<title>TEST_API&#45;&gt;RES_LUA_API</title>
<path fill="none" stroke="black" d="M175.97,-46.29C192.12,-41.89 214.73,-35.73 233.13,-30.72"/>
<polygon fill="black" stroke="black" points="234.04,-34.1 242.77,-28.09 232.2,-27.34 234.04,-34.1"/>
</g>
<!-- RES_C_API -->
<g id="node19" class="node">
<title>RES_C_API</title>
<g id="a_node19"><a xlink:href="fizzbuzz.pdf#RES_C_API" xlink:title="RES_C_API">
<polygon fill="green" stroke="none" points="293.12,-57.76 239.12,-57.76 239.12,-46.24 293.12,-46.24 293.12,-57.76"/>
<text text-anchor="middle" x="266.12" y="-49.27" font-family="Times,serif" font-size="8.00">RES_C_API</text>
</a>
</g>
</g>
<!-- TEST_API&#45;&gt;RES_C_API -->
<g id="edge13" class="edge">
<title>TEST_API&#45;&gt;RES_C_API</title>
<path fill="none" stroke="black" d="M180.82,-52C194.9,-52 212.58,-52 228.11,-52"/>
<polygon fill="black" stroke="black" points="227.95,-55.5 237.95,-52 227.95,-48.5 227.95,-55.5"/>
</g>
<!-- RES_HS_API -->
<g id="node25" class="node">
<title>RES_HS_API</title>
<g id="a_node25"><a xlink:href="fizzbuzz.pdf#RES_HS_API" xlink:title="RES_HS_API">
<polygon fill="green" stroke="none" points="293.12,-87.76 239.12,-87.76 239.12,-76.24 293.12,-76.24 293.12,-87.76"/>
<text text-anchor="middle" x="266.12" y="-79.28" font-family="Times,serif" font-size="8.00">RES_HS_API</text>
</a>
</g>
</g>
<!-- TEST_API&#45;&gt;RES_HS_API -->
<g id="edge19" class="edge">
<title>TEST_API&#45;&gt;RES_HS_API</title>
<path fill="none" stroke="black" d="M175.97,-57.71C192.12,-62.11 214.73,-68.27 233.13,-73.28"/>
<polygon fill="black" stroke="black" points="232.2,-76.66 242.77,-75.91 234.04,-69.9 232.2,-76.66"/>
</g>
<!-- RES_LUA_OUT -->
<g id="node14" class="node">
<title>RES_LUA_OUT</title>
<g id="a_node14"><a xlink:href="fizzbuzz.pdf#RES_LUA_OUT" xlink:title="RES_LUA_OUT">
<polygon fill="green" stroke="none" points="296.88,-117.76 235.38,-117.76 235.38,-106.24 296.88,-106.24 296.88,-117.76"/>
<text text-anchor="middle" x="266.12" y="-109.28" font-family="Times,serif" font-size="8.00">RES_LUA_OUT</text>
</a>
</g>
</g>
<!-- TEST_OUT&#45;&gt;RES_LUA_OUT -->
<g id="edge8" class="edge">
<title>TEST_OUT&#45;&gt;RES_LUA_OUT</title>
<path fill="none" stroke="black" d="M175.97,-136.29C192.12,-131.89 214.73,-125.73 233.13,-120.72"/>
<polygon fill="black" stroke="black" points="234.04,-124.1 242.77,-118.09 232.2,-117.34 234.04,-124.1"/>
</g>
<!-- RES_C_OUT -->
<g id="node20" class="node">
<title>RES_C_OUT</title>
<g id="a_node20"><a xlink:href="fizzbuzz.pdf#RES_C_OUT" xlink:title="RES_C_OUT">
<polygon fill="green" stroke="none" points="293.12,-147.76 239.12,-147.76 239.12,-136.24 293.12,-136.24 293.12,-147.76"/>
<text text-anchor="middle" x="266.12" y="-139.28" font-family="Times,serif" font-size="8.00">RES_C_OUT</text>
</a>
</g>
</g>
<!-- TEST_OUT&#45;&gt;RES_C_OUT -->
<g id="edge14" class="edge">
<title>TEST_OUT&#45;&gt;RES_C_OUT</title>
<path fill="none" stroke="black" d="M180.82,-142C194.9,-142 212.58,-142 228.11,-142"/>
<polygon fill="black" stroke="black" points="227.95,-145.5 237.95,-142 227.95,-138.5 227.95,-145.5"/>
</g>
<!-- RES_HS_OUT -->
<g id="node26" class="node">
<title>RES_HS_OUT</title>
<g id="a_node26"><a xlink:href="fizzbuzz.pdf#RES_HS_OUT" xlink:title="RES_HS_OUT">
<polygon fill="green" stroke="none" points="293.88,-177.76 238.38,-177.76 238.38,-166.24 293.88,-166.24 293.88,-177.76"/>
<text text-anchor="middle" x="266.12" y="-169.28" font-family="Times,serif" font-size="8.00">RES_HS_OUT</text>
</a>
</g>
</g>
<!-- TEST_OUT&#45;&gt;RES_HS_OUT -->
<g id="edge20" class="edge">
<title>TEST_OUT&#45;&gt;RES_HS_OUT</title>
<path fill="none" stroke="black" d="M175.97,-147.71C192.12,-152.11 214.73,-158.27 233.13,-163.28"/>
<polygon fill="black" stroke="black" points="232.2,-166.66 242.77,-165.91 234.04,-159.9 232.2,-166.66"/>
</g>
<!-- RES_LUA_FIZZ -->
<g id="node15" class="node">
<title>RES_LUA_FIZZ</title>
<g id="a_node15"><a xlink:href="fizzbuzz.pdf#RES_LUA_FIZZ" xlink:title="RES_LUA_FIZZ">
<polygon fill="green" stroke="none" points="296.88,-207.76 235.38,-207.76 235.38,-196.24 296.88,-196.24 296.88,-207.76"/>
<text text-anchor="middle" x="266.12" y="-199.28" font-family="Times,serif" font-size="8.00">RES_LUA_FIZZ</text>
</a>
</g>
</g>
<!-- TEST_FIZZ&#45;&gt;RES_LUA_FIZZ -->
<g id="edge9" class="edge">
<title>TEST_FIZZ&#45;&gt;RES_LUA_FIZZ</title>
<path fill="none" stroke="black" d="M175.97,-226.29C192.12,-221.89 214.73,-215.73 233.13,-210.72"/>
<polygon fill="black" stroke="black" points="234.04,-214.1 242.77,-208.09 232.2,-207.34 234.04,-214.1"/>
</g>
<!-- RES_C_FIZZ -->
<g id="node21" class="node">
<title>RES_C_FIZZ</title>
<g id="a_node21"><a xlink:href="fizzbuzz.pdf#RES_C_FIZZ" xlink:title="RES_C_FIZZ">
<polygon fill="green" stroke="none" points="293.12,-237.76 239.12,-237.76 239.12,-226.24 293.12,-226.24 293.12,-237.76"/>
<text text-anchor="middle" x="266.12" y="-229.28" font-family="Times,serif" font-size="8.00">RES_C_FIZZ</text>
</a>
</g>
</g>
<!-- TEST_FIZZ&#45;&gt;RES_C_FIZZ -->
<g id="edge15" class="edge">
<title>TEST_FIZZ&#45;&gt;RES_C_FIZZ</title>
<path fill="none" stroke="black" d="M180.82,-232C194.9,-232 212.58,-232 228.11,-232"/>
<polygon fill="black" stroke="black" points="227.95,-235.5 237.95,-232 227.95,-228.5 227.95,-235.5"/>
</g>
<!-- RES_HS_FIZZ -->
<g id="node27" class="node">
<title>RES_HS_FIZZ</title>
<g id="a_node27"><a xlink:href="fizzbuzz.pdf#RES_HS_FIZZ" xlink:title="RES_HS_FIZZ">
<polygon fill="red" stroke="none" points="293.88,-267.76 238.38,-267.76 238.38,-256.24 293.88,-256.24 293.88,-267.76"/>
<text text-anchor="middle" x="266.12" y="-259.27" font-family="Times,serif" font-size="8.00">RES_HS_FIZZ</text>
</a>
</g>
</g>
<!-- TEST_FIZZ&#45;&gt;RES_HS_FIZZ -->
<g id="edge21" class="edge">
<title>TEST_FIZZ&#45;&gt;RES_HS_FIZZ</title>
<path fill="none" stroke="black" d="M175.97,-237.71C192.12,-242.11 214.73,-248.27 233.13,-253.28"/>
<polygon fill="black" stroke="black" points="232.2,-256.66 242.77,-255.91 234.04,-249.9 232.2,-256.66"/>
</g>
<!-- RES_LUA_BUZZ -->
<g id="node16" class="node">
<title>RES_LUA_BUZZ</title>
<g id="a_node16"><a xlink:href="fizzbuzz.pdf#RES_LUA_BUZZ" xlink:title="RES_LUA_BUZZ">
<polygon fill="green" stroke="none" points="299.12,-297.76 233.12,-297.76 233.12,-286.24 299.12,-286.24 299.12,-297.76"/>
<text text-anchor="middle" x="266.12" y="-289.27" font-family="Times,serif" font-size="8.00">RES_LUA_BUZZ</text>
</a>
</g>
</g>
<!-- TEST_BUZZ&#45;&gt;RES_LUA_BUZZ -->
<g id="edge10" class="edge">
<title>TEST_BUZZ&#45;&gt;RES_LUA_BUZZ</title>
<path fill="none" stroke="black" d="M175.97,-316.29C192.12,-311.89 214.73,-305.73 233.13,-300.72"/>
<polygon fill="black" stroke="black" points="234.04,-304.1 242.77,-298.09 232.2,-297.34 234.04,-304.1"/>
</g>
<!-- RES_C_BUZZ -->
<g id="node22" class="node">
<title>RES_C_BUZZ</title>
<g id="a_node22"><a xlink:href="fizzbuzz.pdf#RES_C_BUZZ" xlink:title="RES_C_BUZZ">
<polygon fill="green" stroke="none" points="293.12,-327.76 239.12,-327.76 239.12,-316.24 293.12,-316.24 293.12,-327.76"/>
<text text-anchor="middle" x="266.12" y="-319.27" font-family="Times,serif" font-size="8.00">RES_C_BUZZ</text>
</a>
</g>
</g>
<!-- TEST_BUZZ&#45;&gt;RES_C_BUZZ -->
<g id="edge16" class="edge">
<title>TEST_BUZZ&#45;&gt;RES_C_BUZZ</title>
<path fill="none" stroke="black" d="M180.82,-322C194.9,-322 212.58,-322 228.11,-322"/>
<polygon fill="black" stroke="black" points="227.95,-325.5 237.95,-322 227.95,-318.5 227.95,-325.5"/>
</g>
<!-- RES_HS_BUZZ -->
<g id="node28" class="node">
<title>RES_HS_BUZZ</title>
<g id="a_node28"><a xlink:href="fizzbuzz.pdf#RES_HS_BUZZ" xlink:title="RES_HS_BUZZ">
<polygon fill="red" stroke="none" points="296.12,-357.76 236.12,-357.76 236.12,-346.24 296.12,-346.24 296.12,-357.76"/>
<text text-anchor="middle" x="266.12" y="-349.27" font-family="Times,serif" font-size="8.00">RES_HS_BUZZ</text>
</a>
</g>
</g>
<!-- TEST_BUZZ&#45;&gt;RES_HS_BUZZ -->
<g id="edge22" class="edge">
<title>TEST_BUZZ&#45;&gt;RES_HS_BUZZ</title>
<path fill="none" stroke="black" d="M175.97,-327.71C192.12,-332.11 214.73,-338.27 233.13,-343.28"/>
<polygon fill="black" stroke="black" points="232.2,-346.66 242.77,-345.91 234.04,-339.9 232.2,-346.66"/>
</g>
<!-- RES_LUA_FIZZBUZZ -->
<g id="node17" class="node">
<title>RES_LUA_FIZZBUZZ</title>
<g id="a_node17"><a xlink:href="fizzbuzz.pdf#RES_LUA_FIZZBUZZ" xlink:title="RES_LUA_FIZZBUZZ">
<polygon fill="green" stroke="none" points="308.5,-387.76 223.75,-387.76 223.75,-376.24 308.5,-376.24 308.5,-387.76"/>
<text text-anchor="middle" x="266.12" y="-379.27" font-family="Times,serif" font-size="8.00">RES_LUA_FIZZBUZZ</text>
</a>
</g>
</g>
<!-- TEST_FIZZBUZZ&#45;&gt;RES_LUA_FIZZBUZZ -->
<g id="edge11" class="edge">
<title>TEST_FIZZBUZZ&#45;&gt;RES_LUA_FIZZBUZZ</title>
<path fill="none" stroke="black" d="M175.97,-406.29C192.12,-401.89 214.73,-395.73 233.13,-390.72"/>
<polygon fill="black" stroke="black" points="234.04,-394.1 242.77,-388.09 232.2,-387.34 234.04,-394.1"/>
</g>
<!-- RES_C_FIZZBUZZ -->
<g id="node23" class="node">
<title>RES_C_FIZZBUZZ</title>
<g id="a_node23"><a xlink:href="fizzbuzz.pdf#RES_C_FIZZBUZZ" xlink:title="RES_C_FIZZBUZZ">
<polygon fill="green" stroke="none" points="302.5,-417.76 229.75,-417.76 229.75,-406.24 302.5,-406.24 302.5,-417.76"/>
<text text-anchor="middle" x="266.12" y="-409.27" font-family="Times,serif" font-size="8.00">RES_C_FIZZBUZZ</text>
</a>
</g>
</g>
<!-- TEST_FIZZBUZZ&#45;&gt;RES_C_FIZZBUZZ -->
<g id="edge17" class="edge">
<title>TEST_FIZZBUZZ&#45;&gt;RES_C_FIZZBUZZ</title>
<path fill="none" stroke="black" d="M187.74,-412C197.42,-412 208.2,-412 218.56,-412"/>
<polygon fill="black" stroke="black" points="218.5,-415.5 228.5,-412 218.5,-408.5 218.5,-415.5"/>
</g>
<!-- RES_HS_FIZZBUZZ -->
<g id="node29" class="node">
<title>RES_HS_FIZZBUZZ</title>
<g id="a_node29"><a xlink:href="fizzbuzz.pdf#RES_HS_FIZZBUZZ" xlink:title="RES_HS_FIZZBUZZ">
<polygon fill="red" stroke="none" points="305.5,-447.76 226.75,-447.76 226.75,-436.24 305.5,-436.24 305.5,-447.76"/>
<text text-anchor="middle" x="266.12" y="-439.27" font-family="Times,serif" font-size="8.00">RES_HS_FIZZBUZZ</text>
</a>
</g>
</g>
<!-- TEST_FIZZBUZZ&#45;&gt;RES_HS_FIZZBUZZ -->
<g id="edge23" class="edge">
<title>TEST_FIZZBUZZ&#45;&gt;RES_HS_FIZZBUZZ</title>
<path fill="none" stroke="black" d="M175.97,-417.71C192.12,-422.11 214.73,-428.27 233.13,-433.28"/>
<polygon fill="black" stroke="black" points="232.2,-436.66 242.77,-435.91 234.04,-429.9 232.2,-436.66"/>
</g>
<!-- RES_LUA_NUM -->
<g id="node18" class="node">
<title>RES_LUA_NUM</title>
<g id="a_node18"><a xlink:href="fizzbuzz.pdf#RES_LUA_NUM" xlink:title="RES_LUA_NUM">
<polygon fill="green" stroke="none" points="298.38,-477.76 233.88,-477.76 233.88,-466.24 298.38,-466.24 298.38,-477.76"/>
<text text-anchor="middle" x="266.12" y="-469.27" font-family="Times,serif" font-size="8.00">RES_LUA_NUM</text>
</a>
</g>
</g>
<!-- TEST_NUM&#45;&gt;RES_LUA_NUM -->
<g id="edge12" class="edge">
<title>TEST_NUM&#45;&gt;RES_LUA_NUM</title>
<path fill="none" stroke="black" d="M175.97,-496.29C192.12,-491.89 214.73,-485.73 233.13,-480.72"/>
<polygon fill="black" stroke="black" points="234.04,-484.1 242.77,-478.09 232.2,-477.34 234.04,-484.1"/>
</g>
<!-- RES_C_NUM -->
<g id="node24" class="node">
<title>RES_C_NUM</title>
<g id="a_node24"><a xlink:href="fizzbuzz.pdf#RES_C_NUM" xlink:title="RES_C_NUM">
<polygon fill="green" stroke="none" points="293.12,-507.76 239.12,-507.76 239.12,-496.24 293.12,-496.24 293.12,-507.76"/>
<text text-anchor="middle" x="266.12" y="-499.27" font-family="Times,serif" font-size="8.00">RES_C_NUM</text>
</a>
</g>
</g>
<!-- TEST_NUM&#45;&gt;RES_C_NUM -->
<g id="edge18" class="edge">
<title>TEST_NUM&#45;&gt;RES_C_NUM</title>
<path fill="none" stroke="black" d="M180.82,-502C194.9,-502 212.58,-502 228.11,-502"/>
<polygon fill="black" stroke="black" points="227.95,-505.5 237.95,-502 227.95,-498.5 227.95,-505.5"/>
</g>
<!-- RES_HS_NUM -->
<g id="node30" class="node">
<title>RES_HS_NUM</title>
<g id="a_node30"><a xlink:href="fizzbuzz.pdf#RES_HS_NUM" xlink:title="RES_HS_NUM">
<polygon fill="red" stroke="none" points="295.38,-537.76 236.88,-537.76 236.88,-526.24 295.38,-526.24 295.38,-537.76"/>
<text text-anchor="middle" x="266.12" y="-529.27" font-family="Times,serif" font-size="8.00">RES_HS_NUM</text>
</a>
</g>
</g>
<!-- TEST_NUM&#45;&gt;RES_HS_NUM -->
<g id="edge24" class="edge">
<title>TEST_NUM&#45;&gt;RES_HS_NUM</title>
<path fill="none" stroke="black" d="M175.97,-507.71C192.12,-512.11 214.73,-518.27 233.13,-523.28"/>
<polygon fill="black" stroke="black" points="232.2,-526.66 242.77,-525.91 234.04,-519.9 232.2,-526.66"/>
</g>
</g>
</svg>
