<?xml version="1.0" encoding="UTF-8" standalone="no"?>
<!DOCTYPE svg PUBLIC "-//W3C//DTD SVG 1.1//EN"
 "http://www.w3.org/Graphics/SVG/1.1/DTD/svg11.dtd">
<!-- Generated by graphviz version 12.1.0 (20240811.2233)
 -->
<!-- Pages: 1 -->
<svg width="643pt" height="387pt"
 viewBox="0.00 0.00 643.28 386.71" xmlns="http://www.w3.org/2000/svg" xmlns:xlink="http://www.w3.org/1999/xlink">
<g id="graph0" class="graph" transform="scale(1 1) rotate(0) translate(4 382.71)">
<polygon fill="white" stroke="none" points="-4,4 -4,-382.71 639.28,-382.71 639.28,4 -4,4"/>
<!-- n -->
<g id="node1" class="node">
<title>n</title>
<ellipse fill="none" stroke="black" cx="224.99" cy="-360.71" rx="27" ry="18"/>
<text text-anchor="middle" x="224.99" y="-356.03" font-family="Times,serif" font-size="14.00">n</text>
</g>
<!-- compute_fizz -->
<g id="node2" class="node">
<title>compute_fizz</title>
<polygon fill="none" stroke="black" points="137.24,-306.71 8.74,-306.71 8.74,-264.21 137.24,-264.21 137.24,-306.71"/>
<text text-anchor="middle" x="72.99" y="-289.41" font-family="Times,serif" font-size="14.00">&quot;fizz&quot;</text>
<text text-anchor="middle" x="72.99" y="-272.16" font-family="Times,serif" font-size="14.00">if n = 0 (mod 3)</text>
</g>
<!-- n&#45;&gt;compute_fizz -->
<g id="edge1" class="edge">
<title>n&#45;&gt;compute_fizz</title>
<path fill="none" stroke="black" d="M203.54,-349.37C183.52,-339.72 152.85,-324.94 126.26,-312.13"/>
<polygon fill="black" stroke="black" points="127.82,-308.99 117.29,-307.8 124.78,-315.3 127.82,-308.99"/>
</g>
<!-- compute_buzz -->
<g id="node3" class="node">
<title>compute_buzz</title>
<polygon fill="none" stroke="black" points="289.24,-306.71 160.74,-306.71 160.74,-264.21 289.24,-264.21 289.24,-306.71"/>
<text text-anchor="middle" x="224.99" y="-289.41" font-family="Times,serif" font-size="14.00">&quot;buzz&quot;</text>
<text text-anchor="middle" x="224.99" y="-272.16" font-family="Times,serif" font-size="14.00">if n = 0 (mod 5)</text>
</g>
<!-- n&#45;&gt;compute_buzz -->
<g id="edge4" class="edge">
<title>n&#45;&gt;compute_buzz</title>
<path fill="none" stroke="black" d="M224.99,-342.35C224.99,-335.16 224.99,-326.59 224.99,-318.34"/>
<polygon fill="black" stroke="black" points="228.49,-318.59 224.99,-308.59 221.49,-318.59 228.49,-318.59"/>
</g>
<!-- select -->
<g id="node5" class="node">
<title>select</title>
<polygon fill="none" stroke="black" points="596.24,-156.03 407.74,-156.03 407.74,-96.28 596.24,-96.28 596.24,-156.03"/>
<text text-anchor="middle" x="501.99" y="-138.73" font-family="Times,serif" font-size="14.00">Choose</text>
<text text-anchor="middle" x="501.99" y="-121.48" font-family="Times,serif" font-size="14.00">&quot;fizz&quot;, &quot;buzz&quot;, &quot;fizzbuzz&quot;</text>
<text text-anchor="middle" x="501.99" y="-104.23" font-family="Times,serif" font-size="14.00">or n</text>
</g>
<!-- n&#45;&gt;select -->
<g id="edge7" class="edge">
<title>n&#45;&gt;select</title>
<path fill="none" stroke="black" d="M243.34,-347.1C258.32,-336.64 279.89,-321.19 297.99,-306.71 356.97,-259.51 421.98,-201.12 462.39,-163.99"/>
<polygon fill="black" stroke="black" points="464.54,-166.78 469.52,-157.43 459.79,-161.63 464.54,-166.78"/>
</g>
<!-- fizz -->
<g id="node6" class="node">
<title>fizz</title>
<ellipse fill="none" stroke="black" cx="66.99" cy="-210.21" rx="66.99" ry="18"/>
<text text-anchor="middle" x="66.99" y="-205.53" font-family="Times,serif" font-size="14.00">&quot;fizz&quot; or nil</text>
</g>
<!-- compute_fizz&#45;&gt;fizz -->
<g id="edge2" class="edge">
<title>compute_fizz&#45;&gt;fizz</title>
<path fill="none" stroke="black" d="M71.32,-264.05C70.7,-256.55 70,-247.9 69.33,-239.8"/>
<polygon fill="black" stroke="black" points="72.84,-239.72 68.53,-230.04 65.86,-240.29 72.84,-239.72"/>
</g>
<!-- buzz -->
<g id="node7" class="node">
<title>buzz</title>
<ellipse fill="none" stroke="black" cx="224.99" cy="-210.21" rx="73.3" ry="18"/>
<text text-anchor="middle" x="224.99" y="-205.53" font-family="Times,serif" font-size="14.00">&quot;buzz&quot; or nil</text>
</g>
<!-- compute_buzz&#45;&gt;buzz -->
<g id="edge5" class="edge">
<title>compute_buzz&#45;&gt;buzz</title>
<path fill="none" stroke="black" d="M224.99,-264.05C224.99,-256.55 224.99,-247.9 224.99,-239.8"/>
<polygon fill="black" stroke="black" points="228.49,-240.04 224.99,-230.04 221.49,-240.04 228.49,-240.04"/>
</g>
<!-- combine -->
<g id="node4" class="node">
<title>combine</title>
<polygon fill="none" stroke="black" points="104.99,-144.16 28.99,-144.16 28.99,-108.16 104.99,-108.16 104.99,-144.16"/>
<text text-anchor="middle" x="66.99" y="-121.48" font-family="Times,serif" font-size="14.00">combine</text>
</g>
<!-- fizzbuzz -->
<g id="node8" class="node">
<title>fizzbuzz</title>
<ellipse fill="none" stroke="black" cx="255.99" cy="-126.16" rx="133.29" ry="30.05"/>
<text text-anchor="middle" x="255.99" y="-130.11" font-family="Times,serif" font-size="14.00">&quot;fizz&quot;, &quot;buzz&quot;, &quot;fizzbuzz&quot;</text>
<text text-anchor="middle" x="255.99" y="-112.86" font-family="Times,serif" font-size="14.00">or nil</text>
</g>
<!-- combine&#45;&gt;fizzbuzz -->
<g id="edge8" class="edge">
<title>combine&#45;&gt;fizzbuzz</title>
<path fill="none" stroke="black" d="M105.38,-126.16C107.25,-126.16 109.11,-126.16 110.98,-126.16"/>
<polygon fill="black" stroke="black" points="110.93,-129.66 120.93,-126.16 110.93,-122.66 110.93,-129.66"/>
</g>
<!-- fizzbuzz_n -->
<g id="node9" class="node">
<title>fizzbuzz_n</title>
<ellipse fill="none" stroke="black" cx="501.99" cy="-30.05" rx="133.29" ry="30.05"/>
<text text-anchor="middle" x="501.99" y="-34" font-family="Times,serif" font-size="14.00">&quot;fizz&quot;, &quot;buzz&quot;, &quot;fizzbuzz&quot;</text>
<text text-anchor="middle" x="501.99" y="-16.75" font-family="Times,serif" font-size="14.00">or n</text>
</g>
<!-- select&#45;&gt;fizzbuzz_n -->
<g id="edge10" class="edge">
<title>select&#45;&gt;fizzbuzz_n</title>
<path fill="none" stroke="black" d="M501.99,-95.9C501.99,-88.2 501.99,-79.75 501.99,-71.57"/>
<polygon fill="black" stroke="black" points="505.49,-71.81 501.99,-61.81 498.49,-71.81 505.49,-71.81"/>
</g>
<!-- fizz&#45;&gt;combine -->
<g id="edge3" class="edge">
<title>fizz&#45;&gt;combine</title>
<path fill="none" stroke="black" d="M66.99,-191.81C66.99,-181.36 66.99,-167.82 66.99,-155.83"/>
<polygon fill="black" stroke="black" points="70.49,-156.05 66.99,-146.05 63.49,-156.05 70.49,-156.05"/>
</g>
<!-- buzz&#45;&gt;combine -->
<g id="edge6" class="edge">
<title>buzz&#45;&gt;combine</title>
<path fill="none" stroke="black" d="M190.5,-193.91C168.35,-183.79 139.11,-169.92 113.99,-156.21 110.6,-154.36 107.12,-152.38 103.66,-150.34"/>
<polygon fill="black" stroke="black" points="105.71,-147.49 95.33,-145.34 102.1,-153.49 105.71,-147.49"/>
</g>
<!-- fizzbuzz&#45;&gt;select -->
<g id="edge9" class="edge">
<title>fizzbuzz&#45;&gt;select</title>
<path fill="none" stroke="black" d="M389.56,-126.16C391.81,-126.16 394.06,-126.16 396.31,-126.16"/>
<polygon fill="black" stroke="black" points="396.05,-129.66 406.05,-126.16 396.05,-122.66 396.05,-129.66"/>
</g>
</g>
</svg>
