<?xml version="1.0" encoding="UTF-8" standalone="no"?>
<!DOCTYPE svg PUBLIC "-//W3C//DTD SVG 1.1//EN"
 "http://www.w3.org/Graphics/SVG/1.1/DTD/svg11.dtd">
<!-- Generated by graphviz version 7.1.0 (0)
 -->
<!-- Pages: 1 -->
<svg width="641pt" height="369pt"
 viewBox="0.00 0.00 641.14 369.48" xmlns="http://www.w3.org/2000/svg" xmlns:xlink="http://www.w3.org/1999/xlink">
<g id="graph0" class="graph" transform="scale(1 1) rotate(0) translate(4 365.48)">
<polygon fill="white" stroke="none" points="-4,4 -4,-365.48 637.14,-365.48 637.14,4 -4,4"/>
<!-- n -->
<g id="node1" class="node">
<title>n</title>
<ellipse fill="none" stroke="black" cx="212.5" cy="-343.48" rx="27" ry="18"/>
<text text-anchor="middle" x="212.5" y="-339.78" font-family="Times,serif" font-size="14.00">n</text>
</g>
<!-- compute_fizz -->
<g id="node2" class="node">
<title>compute_fizz</title>
<polygon fill="none" stroke="black" points="129,-289.48 0,-289.48 0,-251.48 129,-251.48 129,-289.48"/>
<text text-anchor="middle" x="64.5" y="-274.28" font-family="Times,serif" font-size="14.00">&quot;fizz&quot;</text>
<text text-anchor="middle" x="64.5" y="-259.28" font-family="Times,serif" font-size="14.00">if n = 0 (mod 3)</text>
</g>
<!-- n&#45;&gt;compute_fizz -->
<g id="edge1" class="edge">
<title>n&#45;&gt;compute_fizz</title>
<path fill="none" stroke="black" d="M190.98,-332.16C170.67,-322.41 139.49,-307.45 113.17,-294.83"/>
<polygon fill="black" stroke="black" points="114.87,-291.76 104.34,-290.59 111.85,-298.08 114.87,-291.76"/>
</g>
<!-- compute_buzz -->
<g id="node3" class="node">
<title>compute_buzz</title>
<polygon fill="none" stroke="black" points="277,-289.48 148,-289.48 148,-251.48 277,-251.48 277,-289.48"/>
<text text-anchor="middle" x="212.5" y="-274.28" font-family="Times,serif" font-size="14.00">&quot;buzz&quot;</text>
<text text-anchor="middle" x="212.5" y="-259.28" font-family="Times,serif" font-size="14.00">if n = 0 (mod 5)</text>
</g>
<!-- n&#45;&gt;compute_buzz -->
<g id="edge4" class="edge">
<title>n&#45;&gt;compute_buzz</title>
<path fill="none" stroke="black" d="M212.5,-325.29C212.5,-318.07 212.5,-309.45 212.5,-301.25"/>
<polygon fill="black" stroke="black" points="216,-301.26 212.5,-291.26 209,-301.26 216,-301.26"/>
</g>
<!-- select -->
<g id="node5" class="node">
<title>select</title>
<polygon fill="none" stroke="black" points="594,-143.11 405,-143.11 405,-90.11 594,-90.11 594,-143.11"/>
<text text-anchor="middle" x="499.5" y="-127.91" font-family="Times,serif" font-size="14.00">Choose</text>
<text text-anchor="middle" x="499.5" y="-112.91" font-family="Times,serif" font-size="14.00">&quot;fizz&quot;, &quot;buzz&quot;, &quot;fizzbuzz&quot;</text>
<text text-anchor="middle" x="499.5" y="-97.91" font-family="Times,serif" font-size="14.00">or n</text>
</g>
<!-- n&#45;&gt;select -->
<g id="edge7" class="edge">
<title>n&#45;&gt;select</title>
<path fill="none" stroke="black" d="M230.68,-329.65C245.56,-319.07 267.08,-303.55 285.5,-289.48 347.19,-242.36 417.03,-185.61 459.66,-150.57"/>
<polygon fill="black" stroke="black" points="461.67,-153.45 467.16,-144.39 457.22,-148.04 461.67,-153.45"/>
</g>
<!-- fizz -->
<g id="node6" class="node">
<title>fizz</title>
<ellipse fill="none" stroke="black" cx="63.5" cy="-197.48" rx="62.29" ry="18"/>
<text text-anchor="middle" x="63.5" y="-193.78" font-family="Times,serif" font-size="14.00">&quot;fizz&quot; or nil</text>
</g>
<!-- compute_fizz&#45;&gt;fizz -->
<g id="edge2" class="edge">
<title>compute_fizz&#45;&gt;fizz</title>
<path fill="none" stroke="black" d="M64.24,-251.2C64.14,-243.91 64.02,-235.34 63.91,-227.26"/>
<polygon fill="black" stroke="black" points="67.41,-227.43 63.77,-217.48 60.41,-227.53 67.41,-227.43"/>
</g>
<!-- buzz -->
<g id="node7" class="node">
<title>buzz</title>
<ellipse fill="none" stroke="black" cx="212.5" cy="-197.48" rx="68.49" ry="18"/>
<text text-anchor="middle" x="212.5" y="-193.78" font-family="Times,serif" font-size="14.00">&quot;buzz&quot; or nil</text>
</g>
<!-- compute_buzz&#45;&gt;buzz -->
<g id="edge5" class="edge">
<title>compute_buzz&#45;&gt;buzz</title>
<path fill="none" stroke="black" d="M212.5,-251.2C212.5,-243.91 212.5,-235.34 212.5,-227.26"/>
<polygon fill="black" stroke="black" points="216,-227.48 212.5,-217.48 209,-227.48 216,-227.48"/>
</g>
<!-- combine -->
<g id="node4" class="node">
<title>combine</title>
<polygon fill="none" stroke="black" points="102,-134.61 25,-134.61 25,-98.61 102,-98.61 102,-134.61"/>
<text text-anchor="middle" x="63.5" y="-112.91" font-family="Times,serif" font-size="14.00">combine</text>
</g>
<!-- fizzbuzz -->
<g id="node8" class="node">
<title>fizzbuzz</title>
<ellipse fill="none" stroke="black" cx="253.5" cy="-116.61" rx="133.79" ry="26.74"/>
<text text-anchor="middle" x="253.5" y="-120.41" font-family="Times,serif" font-size="14.00">&quot;fizz&quot;, &quot;buzz&quot;, &quot;fizzbuzz&quot;</text>
<text text-anchor="middle" x="253.5" y="-105.41" font-family="Times,serif" font-size="14.00">or nil</text>
</g>
<!-- combine&#45;&gt;fizzbuzz -->
<g id="edge8" class="edge">
<title>combine&#45;&gt;fizzbuzz</title>
<path fill="none" stroke="black" d="M102.46,-116.61C104.3,-116.61 106.14,-116.61 107.98,-116.61"/>
<polygon fill="black" stroke="black" points="107.77,-120.11 117.77,-116.61 107.77,-113.11 107.77,-120.11"/>
</g>
<!-- fizzbuzz_n -->
<g id="node9" class="node">
<title>fizzbuzz_n</title>
<ellipse fill="none" stroke="black" cx="499.5" cy="-26.87" rx="133.79" ry="26.74"/>
<text text-anchor="middle" x="499.5" y="-30.67" font-family="Times,serif" font-size="14.00">&quot;fizz&quot;, &quot;buzz&quot;, &quot;fizzbuzz&quot;</text>
<text text-anchor="middle" x="499.5" y="-15.67" font-family="Times,serif" font-size="14.00">or n</text>
</g>
<!-- select&#45;&gt;fizzbuzz_n -->
<g id="edge10" class="edge">
<title>select&#45;&gt;fizzbuzz_n</title>
<path fill="none" stroke="black" d="M499.5,-89.76C499.5,-82.06 499.5,-73.47 499.5,-65.2"/>
<polygon fill="black" stroke="black" points="503,-65.35 499.5,-55.35 496,-65.35 503,-65.35"/>
</g>
<!-- fizz&#45;&gt;combine -->
<g id="edge3" class="edge">
<title>fizz&#45;&gt;combine</title>
<path fill="none" stroke="black" d="M63.5,-179.37C63.5,-169.72 63.5,-157.41 63.5,-146.33"/>
<polygon fill="black" stroke="black" points="67,-146.48 63.5,-136.48 60,-146.48 67,-146.48"/>
</g>
<!-- buzz&#45;&gt;combine -->
<g id="edge6" class="edge">
<title>buzz&#45;&gt;combine</title>
<path fill="none" stroke="black" d="M182.05,-180.9C161.72,-170.44 134.43,-156.28 110.5,-143.48 108.62,-142.48 106.7,-141.44 104.77,-140.4"/>
<polygon fill="black" stroke="black" points="106.83,-137.54 96.38,-135.83 103.49,-143.69 106.83,-137.54"/>
</g>
<!-- fizzbuzz&#45;&gt;select -->
<g id="edge9" class="edge">
<title>fizzbuzz&#45;&gt;select</title>
<path fill="none" stroke="black" d="M387.55,-116.61C389.42,-116.61 391.28,-116.61 393.15,-116.61"/>
<polygon fill="black" stroke="black" points="393.09,-120.11 403.09,-116.61 393.09,-113.11 393.09,-120.11"/>
</g>
</g>
</svg>
